<svg id="SvgjsSvg1001" width="288" height="288" xmlns="http://www.w3.org/2000/svg" version="1.1" xmlns:xlink="http://www.w3.org/1999/xlink" xmlns:svgjs="http://svgjs.com/svgjs"><defs id="SvgjsDefs1002"></defs><g id="SvgjsG1008" transform="matrix(1,0,0,1,0,0)"><svg xmlns="http://www.w3.org/2000/svg" enable-background="new 0 0 32 32" viewBox="0 0 32 32" width="288" height="288"><path fill="none" stroke="#280004" stroke-linecap="round" stroke-linejoin="round" stroke-miterlimit="10" stroke-width="2" d="M22,13v-3c0-3.3-2.7-6-6-6h0c-3.3,0-6,2.7-6,6v3h0c-2.8,0-5,2.2-5,5v0c0,2.8,2.2,5,5,5h12c2.8,0,5-2.2,5-5v0  C27,15.2,24.8,13,22,13L22,13z" class="colorStroke000 svgStroke"></path><path fill="none" stroke="#280004" stroke-linecap="round" stroke-linejoin="round" stroke-miterlimit="10" stroke-width="2" d="M16,30v-8.7c0-1.4-0.7-2.8-1.9-3.6l0,0c-0.7-0.5-1.5-0.7-2.4-0.7H10" class="colorStroke000 svgStroke"></path><line x1="16" x2="16" y1="9" y2="19" fill="none" stroke="#280004" stroke-linecap="round" stroke-linejoin="round" stroke-miterlimit="10" stroke-width="2" class="colorStroke000 svgStroke"></line><path fill="none" stroke="#280004" stroke-linecap="round" stroke-linejoin="round" stroke-miterlimit="10" stroke-width="2" d="M16,20h0.4c2.3,0,4.4-1.1,5.6-3l0,0" class="colorStroke000 svgStroke"></path></svg></g></svg>